HIERARCHY
ROOT Hips
{
	OFFSET 0.000000 0.000000 0.000000
	CHANNELS 6 Xposition Yposition Zposition Zrotation Yrotation Xrotation 
	JOINT LHipJoint
	{
		OFFSET 0.000000 0.000000 0.000000
		CHANNELS 3 Zrotation Yrotation Xrotation
		JOINT LeftUpLeg
		{
			OFFSET 1.363060 -1.794630 0.839290
			CHANNELS 3 Zrotation Yrotation Xrotation
			JOINT LeftLeg
			{
				OFFSET 2.448110 -6.726130 0.000000
				CHANNELS 3 Zrotation Yrotation Xrotation
				JOINT LeftFoot
				{
					OFFSET 2.562200 -7.039590 0.000000
					CHANNELS 3 Zrotation Yrotation Xrotation
					JOINT LeftToeBase
					{
						OFFSET 0.157640 -0.433110 2.322550
						CHANNELS 3 Zrotation Yrotation Xrotation
						End Site
						{
							OFFSET 0.000000 0.000000 0.000000
						}
					}
				}
			}
		}
	}
	JOINT RHipJoint
	{
		OFFSET 0.000000 0.000000 0.000000
		CHANNELS 3 Zrotation Yrotation Xrotation
		JOINT RightUpLeg
		{
			OFFSET -1.305520 -1.794630 0.839290
			CHANNELS 3 Zrotation Yrotation Xrotation
			JOINT RightLeg
			{
				OFFSET -2.542530 -6.985550 0.000000
				CHANNELS 3 Zrotation Yrotation Xrotation
				JOINT RightFoot
				{
					OFFSET -2.568260 -7.056230 0.000000
					CHANNELS 3 Zrotation Yrotation Xrotation
					JOINT RightToeBase
					{
						OFFSET -0.164730 -0.452590 2.363150
						CHANNELS 3 Zrotation Yrotation Xrotation
						End Site
						{
							OFFSET 0.000000 0.000000 0.000000
						}
					}
				}
			}
		}
	}
	JOINT LowerBack
	{
		OFFSET 0.000000 0.000000 0.000000
		CHANNELS 3 Zrotation Yrotation Xrotation
		JOINT Spine
		{
			OFFSET 0.028270 2.035590 -0.193380
			CHANNELS 3 Zrotation Yrotation Xrotation
			JOINT Spine1
			{
				OFFSET 0.056720 2.048850 -0.042750
				CHANNELS 3 Zrotation Yrotation Xrotation
				JOINT Neck
				{
					OFFSET 0.000000 0.000000 0.000000
					CHANNELS 3 Zrotation Yrotation Xrotation
					JOINT Neck1
					{
						OFFSET -0.054170 1.746240 0.172020
						CHANNELS 3 Zrotation Yrotation Xrotation
						JOINT Head
						{
							OFFSET 0.104070 1.761360 -0.123970
							CHANNELS 3 Zrotation Yrotation Xrotation
							End Site
							{
								OFFSET 0.000000 0.000000 0.000000
							}
						}
					}
				}
				JOINT LeftShoulder
				{
					OFFSET 0.000000 0.000000 0.000000
					CHANNELS 3 Zrotation Yrotation Xrotation
					JOINT LeftArm
					{
						OFFSET 3.362410 1.200890 -0.311210
						CHANNELS 3 Zrotation Yrotation Xrotation
						JOINT LeftForeArm
						{
							OFFSET 4.983000 -0.000000 -0.000000
							CHANNELS 3 Zrotation Yrotation Xrotation
							JOINT LeftHand
							{
								OFFSET 3.483560 -0.000000 -0.000000
								CHANNELS 3 Zrotation Yrotation Xrotation
								JOINT LeftFingerBase
								{
									OFFSET 0.000000 0.000000 0.000000
									CHANNELS 3 Zrotation Yrotation Xrotation
									JOINT LeftHandIndex1
									{
										OFFSET 0.715260 -0.000000 -0.000000
										CHANNELS 3 Zrotation Yrotation Xrotation
										End Site
										{
											OFFSET 0.000000 0.000000 0.000000
										}
									}
								}
								JOINT LThumb
								{
									OFFSET 0.000000 0.000000 0.000000
									CHANNELS 3 Zrotation Yrotation Xrotation
									End Site
									{
										OFFSET 0.000000 0.000000 0.000000
									}
								}
							}
						}
					}
				}
				JOINT RightShoulder
				{
					OFFSET 0.000000 0.000000 0.000000
					CHANNELS 3 Zrotation Yrotation Xrotation
					JOINT RightArm
					{
						OFFSET -3.136600 1.374050 -0.404650
						CHANNELS 3 Zrotation Yrotation Xrotation
						JOINT RightForeArm
						{
							OFFSET -5.241900 -0.000000 -0.000000
							CHANNELS 3 Zrotation Yrotation Xrotation
							JOINT RightHand
							{
								OFFSET -3.444170 -0.000000 -0.000000
								CHANNELS 3 Zrotation Yrotation Xrotation
								JOINT RightFingerBase
								{
									OFFSET 0.000000 0.000000 0.000000
									CHANNELS 3 Zrotation Yrotation Xrotation
									JOINT RightHandIndex1
									{
										OFFSET -0.622530 -0.000000 -0.000000
										CHANNELS 3 Zrotation Yrotation Xrotation
										End Site
										{
											OFFSET 0.000000 0.000000 0.000000
										}
									}
								}
								JOINT RThumb
								{
									OFFSET 0.000000 0.000000 0.000000
									CHANNELS 3 Zrotation Yrotation Xrotation
									End Site
									{
										OFFSET 0.000000 0.000000 0.000000
									}
								}
							}
						}
					}
				}
			}
		}
	}
}
MOTION
Frames: 6
Frame Time: 0.008333
9.237597 18.327478 -40.042863 -144.017471 -85.138581 146.167509 -1.096448 3.840584 1.661933 -12.460182 -26.487291 -2.183265 -1.824067 8.583185 25.392703 5.232102 -11.735909 11.280069 0.741000 -5.499100 -15.337900 -3.074529 -3.327955 0.537576 16.015849 22.001787 -0.446641 1.690090 -7.476644 24.014043 0.538248 -3.820479 5.637230 -2.333600 9.528900 -27.464300 -0.150645 -0.888010 4.548043 6.846942 -1.015349 -2.151628 -1.364352 -0.613739 -11.958232 -2.947115 -0.879335 -15.370539 16.369139 -2.551247 11.601501 2.718300 -0.413800 4.452800 -2.308604 -10.396470 1.706933 -86.504929 1.718641 51.684025 26.244911 -26.631901 -8.208900 1.394639 0.962473 11.482312 7.131968 -32.217970 -3.314200 -7.125000 0.000000 0.000000 -14.565100 -2.754000 15.756300 0.098690 11.301409 3.330937 80.238720 -14.380403 9.092382 -20.010186 22.904508 -5.591300 1.335669 0.201903 21.113084 -5.330438 -53.991336 5.300500 7.125000 0.000000 0.000000 74.433200 -74.056400 -57.916300 
9.248942 18.330787 -40.126529 -124.131637 -86.008870 126.213972 -0.641645 3.629834 1.464454 -12.184288 -26.330453 -2.469640 -1.717983 8.624841 25.775017 5.376011 -12.355763 11.495116 0.923400 -6.122200 -17.139400 -2.674850 -3.547483 0.790029 16.487049 21.583203 -0.042634 1.790536 -7.398601 23.630777 0.873329 -4.800363 4.892414 -2.046100 8.961500 -25.675100 0.390984 -0.875018 4.844544 6.751188 -0.950061 -2.202688 -1.511059 -0.638300 -12.123325 -2.311481 0.024254 -15.006372 15.817573 -1.326170 10.939525 2.478300 0.121800 4.125600 -2.274854 -10.421108 1.738238 -85.875078 2.007317 50.468145 26.342399 -26.711756 -8.191863 1.384701 0.941352 11.215718 6.986898 -31.565509 -3.174200 -7.125000 0.000000 0.000000 -14.612600 -2.076100 15.642800 0.078816 11.227647 3.323322 79.726131 -14.256718 8.816088 -20.107593 23.024807 -5.619465 1.332635 0.208671 20.907338 -4.648454 -53.732873 4.726700 7.125000 0.000000 0.000000 73.881000 -73.755000 -57.046200 
9.246460 18.333150 -40.208423 -99.507697 -86.364361 101.883527 -0.496774 3.154640 1.138081 -11.821394 -26.614624 -2.640623 -1.579633 8.653122 26.163182 5.338019 -12.137411 11.257791 1.257500 -7.108900 -20.038400 -2.535606 -3.972672 1.081840 16.860425 21.112807 -0.164373 1.935316 -7.332053 23.106225 1.044147 -5.351449 4.443604 -1.724900 8.267900 -23.530900 0.766624 -0.817434 4.642289 6.724206 -0.792147 -2.458322 -1.740298 -0.694373 -12.026253 -1.645818 0.937275 -14.422176 14.943771 -0.054732 9.878944 2.344200 0.613600 4.056400 -2.298744 -10.554934 1.759746 -85.680988 2.012820 48.312881 25.926097 -26.220742 -7.877731 1.422709 0.927875 11.890496 6.923330 -31.081785 -3.085100 -7.125000 0.000000 0.000000 -14.641000 -1.606500 15.557000 0.068793 11.104965 3.326257 79.197250 -14.230400 8.722556 -20.203098 23.127152 -5.664625 1.332282 0.207275 20.629521 -5.133994 -53.876858 5.133100 7.125000 0.000000 0.000000 74.110900 -73.960300 -57.500400 
9.256741 18.346149 -40.288899 -66.324524 -86.272095 69.047642 -0.938125 2.439837 0.819969 -11.177874 -27.182513 -2.959973 -1.475629 8.626588 26.459660 5.487719 -12.830890 11.955486 0.807100 -5.733400 -16.012800 -2.979871 -4.595266 1.347684 17.390132 20.538452 -0.348666 2.082015 -7.256694 22.575724 1.310188 -6.174081 3.828846 -1.519900 7.785000 -22.062900 0.813362 -1.008884 4.664196 6.606281 -0.921453 -2.831098 -1.972396 -0.927517 -12.084018 -0.704238 1.855578 -13.729828 14.043731 1.185106 9.054159 1.865000 1.140100 3.598200 -2.317069 -10.679905 1.776866 -85.575401 2.081906 45.341911 25.478788 -25.699005 -7.546094 1.474670 0.911733 13.011328 6.861248 -30.773443 -3.011100 -7.125000 0.000000 0.000000 -14.680200 -1.317600 15.528000 0.073684 10.973449 3.331478 78.600764 -14.114396 9.058937 -20.283413 23.214979 -5.713846 1.330133 0.202146 20.392750 -6.256311 -54.279576 6.079000 7.125000 0.000000 0.000000 74.971200 -74.445100 -58.873600 
9.260050 18.353003 -40.372329 -50.682913 -85.914688 53.580256 -1.328460 2.203496 0.766142 -10.601393 -27.516774 -3.357633 -1.430747 8.691775 26.702156 5.584596 -13.389228 12.905015 0.259600 -3.278100 -9.053900 -3.404992 -4.795979 1.372323 18.025423 20.395467 -0.003752 2.182176 -7.093198 22.138825 1.629083 -7.069308 3.108788 -1.565100 7.894400 -22.393700 0.594704 -0.964463 4.682450 6.615604 -0.823686 -2.989840 -2.069481 -0.920446 -12.097928 0.205246 2.885955 -13.122503 13.194285 2.564992 8.136469 1.422000 1.729200 3.150800 -2.340281 -10.717317 1.760566 -85.746552 2.157713 41.340230 25.158293 -25.335768 -7.310216 1.544816 0.906354 14.464864 6.810105 -31.289878 -3.010500 -7.125000 0.000000 0.000000 -14.751900 -1.851400 15.745400 0.076214 10.940322 3.359321 77.783565 -13.927239 9.727320 -20.305682 23.230697 -5.731909 1.330818 0.191907 20.329824 -6.917106 -54.434787 6.636300 7.125000 0.000000 0.000000 75.211900 -74.712500 -59.408300 
9.262414 18.353003 -40.453987 -37.042305 -85.775663 40.047021 -1.735485 2.159427 0.785118 -10.484989 -27.693750 -3.739149 -1.396074 8.832166 26.927620 5.558727 -13.390152 13.110535 0.238200 -3.141200 -8.672100 -3.817985 -4.831823 1.313794 18.297258 20.360030 0.493288 2.240815 -6.911204 21.786172 1.992792 -8.067873 2.561046 -1.761400 8.350400 -23.783400 0.061277 -0.814482 4.843165 6.423522 -0.651588 -3.185125 -2.018721 -0.801513 -12.205130 1.074557 3.857943 -12.354866 12.296537 3.867310 7.445164 0.980500 2.296000 2.789300 -2.348345 -10.693884 1.743712 -85.857638 2.291647 37.660439 24.831059 -24.970692 -7.082673 1.601218 0.909064 15.629356 6.943846 -31.767434 -3.112700 -7.125000 0.000000 0.000000 -14.716300 -2.371800 15.835800 0.103344 10.949323 3.386965 77.090319 -13.718731 9.482097 -20.316586 23.237848 -5.720804 1.331820 0.169327 21.115590 -6.134339 -54.144097 5.972700 7.125000 0.000000 0.000000 74.487800 -74.373300 -58.331700 
